<svg width="40" height="40" viewBox="0 0 40 40" fill="none" xmlns="http://www.w3.org/2000/svg">
<path d="M31.375 34.9583C27.7084 34.9583 24.1875 34.3125 20.8125 33.0208C17.4375 31.7292 14.4514 29.9375 11.8542 27.6458C9.25699 25.3542 7.18754 22.6458 5.64587 19.5208C4.10421 16.3958 3.33337 13 3.33337 9.33333C3.33337 8.11111 3.67365 7.08333 4.35421 6.25C5.03476 5.41667 6.00004 5 7.25004 5H11.125C11.875 5 12.4584 5.21528 12.875 5.64583C13.2917 6.07639 13.5834 6.69444 13.75 7.5C13.9167 8.33333 14.1042 9.19444 14.3125 10.0833C14.5209 10.9722 14.7639 11.7639 15.0417 12.4583C15.2917 13.0417 15.3681 13.5903 15.2709 14.1042C15.1737 14.6181 14.8889 15.1111 14.4167 15.5833L11.1667 18.75C12.5 20.6944 14.3542 22.5764 16.7292 24.3958C19.1042 26.2153 21.4167 27.4583 23.6667 28.125L25.5834 24.25C25.8334 23.75 26.1528 23.4097 26.5417 23.2292C26.9306 23.0486 27.4723 22.9861 28.1667 23.0417C28.8889 23.0972 29.6042 23.125 30.3125 23.125C31.0209 23.125 31.8195 23.0972 32.7084 23.0417C33.5417 22.9861 34.2431 23.2083 34.8125 23.7083C35.382 24.2083 35.7639 25.0139 35.9584 26.125L36.625 29.875C36.625 29.875 36.6528 30.1111 36.7084 30.5833C36.7084 31.75 36.2292 32.7708 35.2709 33.6458C34.3125 34.5208 33.0139 34.9583 31.375 34.9583Z" fill="#7D502B"/>
</svg>
