<svg width="40" height="40" viewBox="0 0 40 40" fill="none" xmlns="http://www.w3.org/2000/svg">
<path d="M20 30.2918C19.8056 30.2918 19.625 30.271 19.4583 30.2293C19.2917 30.1877 19.1389 30.1113 19 30.0002C15.5278 27.3057 12.9514 24.7154 11.2708 22.2293C9.59028 19.7432 8.75 17.2779 8.75 14.8335C8.75 12.9446 9.09028 11.2849 9.77083 9.85433C10.4514 8.42377 11.3333 7.22238 12.4167 6.25016C13.5 5.27794 14.7083 4.54877 16.0417 4.06266C17.375 3.57655 18.6944 3.3335 20 3.3335C21.3056 3.3335 22.625 3.57655 23.9583 4.06266C25.2917 4.54877 26.5 5.27794 27.5833 6.25016C28.6667 7.22238 29.5486 8.42377 30.2292 9.85433C30.9097 11.2849 31.25 12.9446 31.25 14.8335C31.25 17.2779 30.4097 19.7432 28.7292 22.2293C27.0486 24.7154 24.4722 27.3057 21 30.0002C20.8611 30.1113 20.7083 30.1877 20.5417 30.2293C20.375 30.271 20.1944 30.2918 20 30.2918ZM20 17.5002C20.8056 17.5002 21.4931 17.2154 22.0625 16.646C22.6319 16.0766 22.9167 15.3891 22.9167 14.5835C22.9167 13.7779 22.6319 13.0904 22.0625 12.521C21.4931 11.9516 20.8056 11.6668 20 11.6668C19.1944 11.6668 18.5069 11.9516 17.9375 12.521C17.3681 13.0904 17.0833 13.7779 17.0833 14.5835C17.0833 15.3891 17.3681 16.0766 17.9375 16.646C18.5069 17.2154 19.1944 17.5002 20 17.5002ZM10 36.6668C9.63889 36.6668 9.34028 36.5488 9.10417 36.3127C8.86806 36.0766 8.75 35.7779 8.75 35.4168C8.75 35.0557 8.86806 34.7571 9.10417 34.521C9.34028 34.2849 9.63889 34.1668 10 34.1668H30C30.3611 34.1668 30.6597 34.2849 30.8958 34.521C31.1319 34.7571 31.25 35.0557 31.25 35.4168C31.25 35.7779 31.1319 36.0766 30.8958 36.3127C30.6597 36.5488 30.3611 36.6668 30 36.6668H10Z" fill="#7D502B"/>
</svg>
