<svg width="40" height="40" viewBox="0 0 40 40" fill="none" xmlns="http://www.w3.org/2000/svg">
<path d="M25.25 27.1252C25.4722 27.3752 25.7639 27.5002 26.125 27.5002C26.4861 27.5002 26.7916 27.3613 27.0416 27.0835C27.3194 26.8335 27.4583 26.521 27.4583 26.146C27.4583 25.771 27.3333 25.4585 27.0833 25.2085L21.375 19.5002V12.3335C21.375 12.0002 21.2569 11.7154 21.0208 11.4793C20.7847 11.2432 20.4861 11.1252 20.125 11.1252C19.7639 11.1252 19.4653 11.2432 19.2291 11.4793C18.993 11.7154 18.875 12.0141 18.875 12.3752V20.0002C18.875 20.1668 18.9028 20.3196 18.9583 20.4585C19.0139 20.5974 19.0972 20.7363 19.2083 20.8752L25.25 27.1252ZM20 36.6668C17.7222 36.6668 15.5694 36.2293 13.5416 35.3543C11.5139 34.4793 9.74304 33.2849 8.22915 31.771C6.71526 30.2571 5.52081 28.4863 4.64581 26.4585C3.77081 24.4307 3.33331 22.2779 3.33331 20.0002C3.33331 17.7224 3.77081 15.5696 4.64581 13.5418C5.52081 11.5141 6.71526 9.74322 8.22915 8.22933C9.74304 6.71544 11.5139 5.521 13.5416 4.646C15.5694 3.771 17.7222 3.3335 20 3.3335C22.2778 3.3335 24.4305 3.771 26.4583 4.646C28.4861 5.521 30.2569 6.71544 31.7708 8.22933C33.2847 9.74322 34.4791 11.5141 35.3541 13.5418C36.2291 15.5696 36.6666 17.7224 36.6666 20.0002C36.6666 22.2779 36.2291 24.4307 35.3541 26.4585C34.4791 28.4863 33.2847 30.2571 31.7708 31.771C30.2569 33.2849 28.4861 34.4793 26.4583 35.3543C24.4305 36.2293 22.2778 36.6668 20 36.6668Z" fill="#7D502B"/>
</svg>
